<mxfile host="65bd71144e">
    <diagram id="xpTfQwLlDye6NHtaUpQL" name="Pagina-1">
        <mxGraphModel dx="1600" dy="2003" grid="1" gridSize="8" guides="1" tooltips="1" connect="1" arrows="1" fold="1" page="1" pageScale="1" pageWidth="827" pageHeight="1169" background="#ffffff" math="0" shadow="1">
            <root>
                <mxCell id="0"/>
                <mxCell id="1" parent="0"/>
                <mxCell id="12" value="" style="shape=table;startSize=0;container=1;collapsible=0;childLayout=tableLayout;rounded=1;" parent="1" vertex="1">
                    <mxGeometry x="464" y="-128" width="92.09" height="74" as="geometry"/>
                </mxCell>
                <mxCell id="13" value="" style="shape=partialRectangle;collapsible=0;dropTarget=0;pointerEvents=0;fillColor=none;top=0;left=0;bottom=0;right=0;points=[[0,0.5],[1,0.5]];portConstraint=eastwest;rounded=1;" parent="12" vertex="1">
                    <mxGeometry width="92.09" height="74" as="geometry"/>
                </mxCell>
                <mxCell id="14" value="&lt;font&gt;&lt;span style=&quot;font-size: 18px&quot;&gt;SECTION&lt;/span&gt;&lt;br&gt;&lt;font style=&quot;font-size: 11px&quot;&gt;MUSIC-IS-LIFE&lt;/font&gt;&lt;br&gt;&lt;/font&gt;" style="shape=partialRectangle;html=1;whiteSpace=wrap;connectable=0;overflow=hidden;fillColor=none;top=0;left=0;bottom=0;right=0;rounded=1;" parent="13" vertex="1">
                    <mxGeometry width="92" height="74" as="geometry"/>
                </mxCell>
                <mxCell id="15" value="" style="shape=table;startSize=0;container=1;collapsible=0;childLayout=tableLayout;rounded=1;" parent="1" vertex="1">
                    <mxGeometry x="208" y="-128" width="98.67" height="74" as="geometry"/>
                </mxCell>
                <mxCell id="16" value="" style="shape=partialRectangle;collapsible=0;dropTarget=0;pointerEvents=0;fillColor=none;top=0;left=0;bottom=0;right=0;points=[[0,0.5],[1,0.5]];portConstraint=eastwest;rounded=1;" parent="15" vertex="1">
                    <mxGeometry width="98.67" height="74" as="geometry"/>
                </mxCell>
                <mxCell id="17" value="&lt;font style=&quot;font-size: 18px&quot;&gt;HEADER&lt;/font&gt;" style="shape=partialRectangle;html=1;whiteSpace=wrap;connectable=0;overflow=hidden;fillColor=none;top=0;left=0;bottom=0;right=0;rounded=1;" parent="16" vertex="1">
                    <mxGeometry width="99" height="74" as="geometry"/>
                </mxCell>
                <mxCell id="63" value="" style="shape=table;startSize=0;container=1;collapsible=0;childLayout=tableLayout;rounded=1;" parent="1" vertex="1">
                    <mxGeometry x="340" y="-128" width="92.09" height="74" as="geometry"/>
                </mxCell>
                <mxCell id="64" value="" style="shape=partialRectangle;collapsible=0;dropTarget=0;pointerEvents=0;fillColor=none;top=0;left=0;bottom=0;right=0;points=[[0,0.5],[1,0.5]];portConstraint=eastwest;rounded=1;" parent="63" vertex="1">
                    <mxGeometry width="92.09" height="74" as="geometry"/>
                </mxCell>
                <mxCell id="65" value="JUMBOTRON" style="shape=partialRectangle;html=1;whiteSpace=wrap;connectable=0;overflow=hidden;fillColor=none;top=0;left=0;bottom=0;right=0;rounded=1;" parent="64" vertex="1">
                    <mxGeometry width="92" height="74" as="geometry"/>
                </mxCell>
                <mxCell id="66" value="" style="shape=table;startSize=0;container=1;collapsible=0;childLayout=tableLayout;rounded=1;" parent="1" vertex="1">
                    <mxGeometry x="592" y="-128" width="92.09" height="74" as="geometry"/>
                </mxCell>
                <mxCell id="67" value="" style="shape=partialRectangle;collapsible=0;dropTarget=0;pointerEvents=0;fillColor=none;top=0;left=0;bottom=0;right=0;points=[[0,0.5],[1,0.5]];portConstraint=eastwest;rounded=1;" parent="66" vertex="1">
                    <mxGeometry width="92.09" height="74" as="geometry"/>
                </mxCell>
                <mxCell id="68" value="&lt;font&gt;&lt;span style=&quot;font-size: 18px&quot;&gt;MAIN&lt;/span&gt;&lt;br&gt;&lt;/font&gt;" style="shape=partialRectangle;html=1;whiteSpace=wrap;connectable=0;overflow=hidden;fillColor=none;top=0;left=0;bottom=0;right=0;rounded=1;" parent="67" vertex="1">
                    <mxGeometry width="92" height="74" as="geometry"/>
                </mxCell>
                <mxCell id="72" value="" style="shape=table;startSize=0;container=1;collapsible=0;childLayout=tableLayout;rounded=1;fillColor=#a20025;strokeColor=#6F0000;fontColor=#ffffff;" parent="1" vertex="1">
                    <mxGeometry x="720" y="-128" width="92.09" height="74" as="geometry"/>
                </mxCell>
                <mxCell id="73" value="" style="shape=partialRectangle;collapsible=0;dropTarget=0;pointerEvents=0;fillColor=none;top=0;left=0;bottom=0;right=0;points=[[0,0.5],[1,0.5]];portConstraint=eastwest;rounded=1;" parent="72" vertex="1">
                    <mxGeometry width="92.09" height="74" as="geometry"/>
                </mxCell>
                <mxCell id="74" value="&lt;font&gt;&lt;span style=&quot;font-size: 18px&quot;&gt;SECTION&lt;/span&gt;&lt;br&gt;&lt;font style=&quot;font-size: 11px&quot;&gt;NEWS&lt;/font&gt;&lt;br&gt;&lt;/font&gt;" style="shape=partialRectangle;html=1;whiteSpace=wrap;connectable=0;overflow=hidden;fillColor=none;top=0;left=0;bottom=0;right=0;rounded=1;" parent="73" vertex="1">
                    <mxGeometry width="92" height="74" as="geometry"/>
                </mxCell>
                <mxCell id="75" value="" style="shape=table;startSize=0;container=1;collapsible=0;childLayout=tableLayout;rounded=1;sketch=0;shadow=0;" parent="1" vertex="1">
                    <mxGeometry x="848" y="-128" width="92.09" height="74" as="geometry"/>
                </mxCell>
                <mxCell id="76" value="" style="shape=partialRectangle;collapsible=0;dropTarget=0;pointerEvents=0;fillColor=none;top=0;left=0;bottom=0;right=0;points=[[0,0.5],[1,0.5]];portConstraint=eastwest;rounded=1;" parent="75" vertex="1">
                    <mxGeometry width="92.09" height="74" as="geometry"/>
                </mxCell>
                <mxCell id="77" value="&lt;font&gt;&lt;span style=&quot;font-size: 18px&quot;&gt;SECTION&lt;/span&gt;&lt;br&gt;&lt;font style=&quot;font-size: 11px&quot;&gt;VIDEO&lt;/font&gt;&lt;br&gt;&lt;/font&gt;" style="shape=partialRectangle;html=1;whiteSpace=wrap;connectable=0;overflow=hidden;fillColor=none;top=0;left=0;bottom=0;right=0;rounded=1;" parent="76" vertex="1">
                    <mxGeometry width="92" height="74" as="geometry"/>
                </mxCell>
                <mxCell id="78" value="" style="html=1;verticalLabelPosition=bottom;align=center;labelBackgroundColor=#ffffff;verticalAlign=top;strokeWidth=2;strokeColor=#0080F0;shadow=0;dashed=0;shape=mxgraph.ios7.icons.video_conversation;" parent="1" vertex="1">
                    <mxGeometry x="904" y="-72" width="30" height="15" as="geometry"/>
                </mxCell>
                <mxCell id="88" value="" style="shape=table;startSize=0;container=1;collapsible=0;childLayout=tableLayout;rounded=1;" parent="1" vertex="1">
                    <mxGeometry x="976" y="-128" width="92.09" height="74" as="geometry"/>
                </mxCell>
                <mxCell id="89" value="" style="shape=partialRectangle;collapsible=0;dropTarget=0;pointerEvents=0;fillColor=none;top=0;left=0;bottom=0;right=0;points=[[0,0.5],[1,0.5]];portConstraint=eastwest;rounded=1;" parent="88" vertex="1">
                    <mxGeometry width="92.09" height="74" as="geometry"/>
                </mxCell>
                <mxCell id="90" value="&lt;font&gt;&lt;span style=&quot;font-size: 18px&quot;&gt;SECTION&lt;/span&gt;&lt;br&gt;&lt;span style=&quot;font-size: 11px&quot;&gt;ACCORDION&lt;/span&gt;&lt;br&gt;&lt;/font&gt;" style="shape=partialRectangle;html=1;whiteSpace=wrap;connectable=0;overflow=hidden;fillColor=none;top=0;left=0;bottom=0;right=0;rounded=1;" parent="89" vertex="1">
                    <mxGeometry width="92" height="74" as="geometry"/>
                </mxCell>
                <mxCell id="91" value="" style="verticalLabelPosition=bottom;html=1;verticalAlign=top;align=center;shape=mxgraph.floorplan.doorAccordion;dx=0.6;shadow=0;sketch=0;" parent="1" vertex="1">
                    <mxGeometry x="990.05" y="-68" width="64" height="7" as="geometry"/>
                </mxCell>
                <mxCell id="92" value="" style="shape=table;startSize=0;container=1;collapsible=0;childLayout=tableLayout;rounded=1;fillColor=#a20025;strokeColor=#6F0000;fontColor=#ffffff;" parent="1" vertex="1">
                    <mxGeometry x="1096" y="-128" width="92.09" height="74" as="geometry"/>
                </mxCell>
                <mxCell id="93" value="" style="shape=partialRectangle;collapsible=0;dropTarget=0;pointerEvents=0;fillColor=none;top=0;left=0;bottom=0;right=0;points=[[0,0.5],[1,0.5]];portConstraint=eastwest;rounded=1;" parent="92" vertex="1">
                    <mxGeometry width="92.09" height="74" as="geometry"/>
                </mxCell>
                <mxCell id="94" value="&lt;font&gt;&lt;span style=&quot;font-size: 18px&quot;&gt;SECTION&lt;/span&gt;&lt;br&gt;&lt;font style=&quot;font-size: 11px&quot;&gt;DATES&lt;/font&gt;&lt;br&gt;&lt;/font&gt;" style="shape=partialRectangle;html=1;whiteSpace=wrap;connectable=0;overflow=hidden;fillColor=none;top=0;left=0;bottom=0;right=0;rounded=1;" parent="93" vertex="1">
                    <mxGeometry width="92" height="74" as="geometry"/>
                </mxCell>
                <mxCell id="117" style="edgeStyle=orthogonalEdgeStyle;rounded=0;orthogonalLoop=1;jettySize=auto;html=1;entryX=0.499;entryY=0.01;entryDx=0;entryDy=0;entryPerimeter=0;strokeColor=#000000;" parent="1" source="95" target="99" edge="1">
                    <mxGeometry relative="1" as="geometry"/>
                </mxCell>
                <mxCell id="95" value="" style="shape=table;startSize=0;container=1;collapsible=0;childLayout=tableLayout;rounded=1;" parent="1" vertex="1">
                    <mxGeometry x="1216" y="-128" width="92.09" height="74" as="geometry"/>
                </mxCell>
                <mxCell id="96" value="" style="shape=partialRectangle;collapsible=0;dropTarget=0;pointerEvents=0;fillColor=none;top=0;left=0;bottom=0;right=0;points=[[0,0.5],[1,0.5]];portConstraint=eastwest;rounded=1;" parent="95" vertex="1">
                    <mxGeometry width="92.09" height="74" as="geometry"/>
                </mxCell>
                <mxCell id="97" value="&lt;font&gt;&lt;span style=&quot;font-size: 18px&quot;&gt;FOOTER&lt;/span&gt;&lt;br&gt;&lt;/font&gt;" style="shape=partialRectangle;html=1;whiteSpace=wrap;connectable=0;overflow=hidden;fillColor=none;top=0;left=0;bottom=0;right=0;rounded=1;" parent="96" vertex="1">
                    <mxGeometry width="92" height="74" as="geometry"/>
                </mxCell>
                <mxCell id="98" value="" style="shape=table;startSize=0;container=1;collapsible=0;childLayout=tableLayout;rounded=1;" parent="1" vertex="1">
                    <mxGeometry x="1216" y="-32" width="92.09" height="74" as="geometry"/>
                </mxCell>
                <mxCell id="99" value="" style="shape=partialRectangle;collapsible=0;dropTarget=0;pointerEvents=0;fillColor=none;top=0;left=0;bottom=0;right=0;points=[[0,0.5],[1,0.5]];portConstraint=eastwest;rounded=1;" parent="98" vertex="1">
                    <mxGeometry width="92.09" height="74" as="geometry"/>
                </mxCell>
                <mxCell id="100" value="&lt;font&gt;&lt;span style=&quot;font-size: 18px&quot;&gt;NAVBAR&lt;/span&gt;&lt;br&gt;&lt;/font&gt;" style="shape=partialRectangle;html=1;whiteSpace=wrap;connectable=0;overflow=hidden;fillColor=none;top=0;left=0;bottom=0;right=0;rounded=1;" parent="99" vertex="1">
                    <mxGeometry width="92" height="74" as="geometry"/>
                </mxCell>
                <mxCell id="111" style="edgeStyle=orthogonalEdgeStyle;rounded=0;orthogonalLoop=1;jettySize=auto;html=1;entryX=0.527;entryY=-0.011;entryDx=0;entryDy=0;entryPerimeter=0;strokeColor=#000000;" parent="1" source="101" target="73" edge="1">
                    <mxGeometry relative="1" as="geometry">
                        <Array as="points">
                            <mxPoint x="821" y="-144"/>
                            <mxPoint x="769" y="-144"/>
                        </Array>
                    </mxGeometry>
                </mxCell>
                <mxCell id="112" style="edgeStyle=orthogonalEdgeStyle;rounded=0;orthogonalLoop=1;jettySize=auto;html=1;entryX=0.541;entryY=-0.018;entryDx=0;entryDy=0;entryPerimeter=0;strokeColor=#000000;" parent="1" source="101" target="76" edge="1">
                    <mxGeometry relative="1" as="geometry">
                        <Array as="points">
                            <mxPoint x="821" y="-144"/>
                            <mxPoint x="898" y="-144"/>
                        </Array>
                    </mxGeometry>
                </mxCell>
                <mxCell id="101" value="" style="shape=table;startSize=0;container=1;collapsible=0;childLayout=tableLayout;rounded=1;" parent="1" vertex="1">
                    <mxGeometry x="736" y="-248" width="170" height="90" as="geometry"/>
                </mxCell>
                <mxCell id="102" value="" style="shape=partialRectangle;collapsible=0;dropTarget=0;pointerEvents=0;fillColor=none;top=0;left=0;bottom=0;right=0;points=[[0,0.5],[1,0.5]];portConstraint=eastwest;rounded=1;" parent="101" vertex="1">
                    <mxGeometry width="170" height="90" as="geometry"/>
                </mxCell>
                <mxCell id="103" value="&lt;font style=&quot;font-size: 18px&quot;&gt;APP&lt;/font&gt;" style="shape=partialRectangle;html=1;whiteSpace=wrap;connectable=0;overflow=hidden;fillColor=none;top=0;left=0;bottom=0;right=0;rounded=1;" parent="102" vertex="1">
                    <mxGeometry width="170" height="90" as="geometry"/>
                </mxCell>
                <mxCell id="104" value="" style="shape=table;startSize=0;container=1;collapsible=0;childLayout=tableLayout;rounded=1;" parent="1" vertex="1">
                    <mxGeometry x="1328" y="-32" width="92.09" height="74" as="geometry"/>
                </mxCell>
                <mxCell id="105" value="" style="shape=partialRectangle;collapsible=0;dropTarget=0;pointerEvents=0;fillColor=none;top=0;left=0;bottom=0;right=0;points=[[0,0.5],[1,0.5]];portConstraint=eastwest;rounded=1;" parent="104" vertex="1">
                    <mxGeometry width="92.09" height="74" as="geometry"/>
                </mxCell>
                <mxCell id="106" value="&lt;font&gt;&lt;span style=&quot;font-size: 18px&quot;&gt;INFO&lt;/span&gt;&lt;br&gt;&lt;/font&gt;" style="shape=partialRectangle;html=1;whiteSpace=wrap;connectable=0;overflow=hidden;fillColor=none;top=0;left=0;bottom=0;right=0;rounded=1;" parent="105" vertex="1">
                    <mxGeometry width="92" height="74" as="geometry"/>
                </mxCell>
                <mxCell id="107" style="edgeStyle=orthogonalEdgeStyle;rounded=0;orthogonalLoop=1;jettySize=auto;html=1;entryX=0.543;entryY=0.008;entryDx=0;entryDy=0;entryPerimeter=0;strokeColor=#000000;" parent="1" source="102" target="16" edge="1">
                    <mxGeometry relative="1" as="geometry"/>
                </mxCell>
                <mxCell id="108" style="edgeStyle=orthogonalEdgeStyle;rounded=0;orthogonalLoop=1;jettySize=auto;html=1;entryX=0.521;entryY=-0.011;entryDx=0;entryDy=0;entryPerimeter=0;strokeColor=#000000;" parent="1" source="102" target="64" edge="1">
                    <mxGeometry relative="1" as="geometry"/>
                </mxCell>
                <mxCell id="109" style="edgeStyle=orthogonalEdgeStyle;rounded=0;orthogonalLoop=1;jettySize=auto;html=1;entryX=0.516;entryY=-0.011;entryDx=0;entryDy=0;entryPerimeter=0;strokeColor=#000000;" parent="1" source="102" target="13" edge="1">
                    <mxGeometry relative="1" as="geometry"/>
                </mxCell>
                <mxCell id="110" style="edgeStyle=orthogonalEdgeStyle;rounded=0;orthogonalLoop=1;jettySize=auto;html=1;entryX=0.544;entryY=-0.011;entryDx=0;entryDy=0;entryPerimeter=0;strokeColor=#000000;" parent="1" source="102" target="67" edge="1">
                    <mxGeometry relative="1" as="geometry"/>
                </mxCell>
                <mxCell id="113" style="edgeStyle=orthogonalEdgeStyle;rounded=0;orthogonalLoop=1;jettySize=auto;html=1;entryX=0.518;entryY=-0.007;entryDx=0;entryDy=0;entryPerimeter=0;strokeColor=#000000;" parent="1" source="102" target="89" edge="1">
                    <mxGeometry relative="1" as="geometry"/>
                </mxCell>
                <mxCell id="114" style="edgeStyle=orthogonalEdgeStyle;rounded=0;orthogonalLoop=1;jettySize=auto;html=1;entryX=0.554;entryY=0.005;entryDx=0;entryDy=0;entryPerimeter=0;strokeColor=#000000;" parent="1" source="102" target="93" edge="1">
                    <mxGeometry relative="1" as="geometry"/>
                </mxCell>
                <mxCell id="115" style="edgeStyle=orthogonalEdgeStyle;rounded=0;orthogonalLoop=1;jettySize=auto;html=1;entryX=0.556;entryY=-0.003;entryDx=0;entryDy=0;entryPerimeter=0;strokeColor=#000000;" parent="1" source="102" target="96" edge="1">
                    <mxGeometry relative="1" as="geometry"/>
                </mxCell>
                <mxCell id="118" style="edgeStyle=orthogonalEdgeStyle;rounded=0;orthogonalLoop=1;jettySize=auto;html=1;entryX=0.544;entryY=0.01;entryDx=0;entryDy=0;entryPerimeter=0;strokeColor=#000000;" parent="1" source="96" target="105" edge="1">
                    <mxGeometry relative="1" as="geometry"/>
                </mxCell>
                <mxCell id="122" value="" style="shape=table;startSize=0;container=1;collapsible=0;childLayout=tableLayout;rounded=1;" vertex="1" parent="1">
                    <mxGeometry x="115.91000000000003" y="-32" width="92.09" height="74" as="geometry"/>
                </mxCell>
                <mxCell id="123" value="" style="shape=partialRectangle;collapsible=0;dropTarget=0;pointerEvents=0;fillColor=none;top=0;left=0;bottom=0;right=0;points=[[0,0.5],[1,0.5]];portConstraint=eastwest;rounded=1;" vertex="1" parent="122">
                    <mxGeometry width="92.09" height="74" as="geometry"/>
                </mxCell>
                <mxCell id="124" value="&lt;font&gt;&lt;span style=&quot;font-size: 18px&quot;&gt;NAVBAR&lt;/span&gt;&lt;br&gt;&lt;span style=&quot;font-size: 11px&quot;&gt;A COMPARSA&lt;/span&gt;&lt;br&gt;&lt;/font&gt;" style="shape=partialRectangle;html=1;whiteSpace=wrap;connectable=0;overflow=hidden;fillColor=none;top=0;left=0;bottom=0;right=0;rounded=1;" vertex="1" parent="123">
                    <mxGeometry width="92" height="74" as="geometry"/>
                </mxCell>
                <mxCell id="126" style="edgeStyle=orthogonalEdgeStyle;rounded=0;orthogonalLoop=1;jettySize=auto;html=1;entryX=0.479;entryY=0;entryDx=0;entryDy=0;entryPerimeter=0;strokeColor=#000000;" edge="1" parent="1" source="16" target="123">
                    <mxGeometry relative="1" as="geometry"/>
                </mxCell>
            </root>
        </mxGraphModel>
    </diagram>
</mxfile>